<svg width="1511" height="307" viewBox="0 0 1511 307" fill="none" xmlns="http://www.w3.org/2000/svg">
<path d="M334.936 138.812H374.379V152.541C385.129 142.226 397.187 137.069 410.553 137.069C427.114 137.069 439.753 144.042 448.47 157.989C457.332 143.897 469.971 136.851 486.387 136.851C491.617 136.851 496.557 137.65 501.206 139.248C505.854 140.701 509.849 143.098 513.191 146.439C516.532 149.635 519.147 153.848 521.036 159.078C523.07 164.308 524.087 170.628 524.087 178.037V250.603H484.644V195.47C484.644 189.804 484.208 185.155 483.336 181.523C482.61 177.892 481.448 175.059 479.85 173.025C478.397 170.991 476.654 169.611 474.62 168.884C472.586 168.158 470.407 167.795 468.082 167.795C455.443 167.795 449.124 177.02 449.124 195.47V250.603H409.681V195.47C409.681 189.804 409.318 185.155 408.591 181.523C407.865 177.746 406.775 174.768 405.323 172.589C404.015 170.41 402.272 168.957 400.093 168.231C397.914 167.359 395.371 166.923 392.466 166.923C389.996 166.923 387.672 167.286 385.492 168.013C383.313 168.739 381.352 170.192 379.609 172.371C378.011 174.405 376.703 177.31 375.686 181.088C374.815 184.72 374.379 189.514 374.379 195.47V250.603H334.936V138.812Z" fill="white"/>
<path d="M604.538 178.473C603.231 172.952 600.543 168.521 596.475 165.18C592.408 161.838 587.468 160.168 581.657 160.168C575.556 160.168 570.543 161.766 566.621 164.962C562.844 168.158 560.447 172.662 559.43 178.473H604.538ZM558.34 201.354C558.34 218.351 566.33 226.85 582.311 226.85C590.882 226.85 597.347 223.363 601.705 216.39H639.841C632.141 241.959 612.892 254.743 582.093 254.743C572.65 254.743 564.006 253.363 556.161 250.603C548.316 247.697 541.561 243.629 535.895 238.399C530.374 233.169 526.089 226.923 523.038 219.659C519.987 212.395 518.462 204.259 518.462 195.252C518.462 185.954 519.914 177.601 522.82 170.192C525.726 162.637 529.866 156.245 535.241 151.015C540.616 145.785 547.081 141.79 554.636 139.03C562.335 136.124 570.979 134.672 580.568 134.672C590.011 134.672 598.509 136.124 606.064 139.03C613.618 141.79 620.01 145.858 625.24 151.233C630.47 156.608 634.465 163.219 637.226 171.064C639.986 178.763 641.366 187.48 641.366 197.213V201.354H558.34Z" fill="white"/>
<path d="M672.192 194.38C672.192 198.012 672.846 201.426 674.154 204.623C675.461 207.673 677.205 210.361 679.384 212.685C681.708 215.01 684.396 216.826 687.447 218.133C690.643 219.441 694.057 220.095 697.689 220.095C701.175 220.095 704.444 219.441 707.495 218.133C710.691 216.826 713.379 215.01 715.558 212.685C717.882 210.361 719.698 207.673 721.006 204.623C722.458 201.572 723.185 198.303 723.185 194.816C723.185 191.33 722.458 188.061 721.006 185.01C719.698 181.814 717.882 179.054 715.558 176.729C713.379 174.405 710.691 172.589 707.495 171.281C704.444 169.974 701.175 169.32 697.689 169.32C694.202 169.32 690.861 169.974 687.664 171.281C684.614 172.589 681.926 174.405 679.602 176.729C677.422 179.054 675.606 181.741 674.154 184.792C672.846 187.698 672.192 190.894 672.192 194.38ZM721.877 69.7329H761.538V250.603H721.877V238.181C713.451 248.787 702.047 254.089 687.664 254.089C679.529 254.089 672.047 252.564 665.219 249.513C658.391 246.462 652.435 242.249 647.35 236.874C642.265 231.499 638.27 225.179 635.365 217.915C632.605 210.652 631.224 202.807 631.224 194.38C631.224 186.39 632.532 178.836 635.147 171.717C637.907 164.453 641.757 158.134 646.696 152.759C651.636 147.383 657.52 143.17 664.348 140.12C671.321 136.923 678.948 135.325 687.229 135.325C701.175 135.325 712.725 140.192 721.877 149.926V69.7329Z" fill="white"/>
<path d="M799.493 138.812V250.603H760.05V138.812H799.493ZM757.435 95.8827C757.435 92.8319 758.016 89.999 759.178 87.384C760.34 84.6238 761.938 82.2267 763.972 80.1928C766.006 78.1589 768.331 76.5609 770.946 75.3987C773.706 74.2365 776.611 73.6553 779.662 73.6553C782.713 73.6553 785.546 74.2365 788.161 75.3987C790.921 76.5609 793.318 78.1589 795.352 80.1928C797.386 82.2267 798.984 84.6238 800.146 87.384C801.309 89.999 801.89 92.8319 801.89 95.8827C801.89 98.9335 801.309 101.839 800.146 104.599C798.984 107.214 797.386 109.539 795.352 111.573C793.318 113.607 790.921 115.205 788.161 116.367C785.546 117.529 782.713 118.11 779.662 118.11C776.611 118.11 773.706 117.529 770.946 116.367C768.331 115.205 766.006 113.607 763.972 111.573C761.938 109.539 760.34 107.214 759.178 104.599C758.016 101.839 757.435 98.9335 757.435 95.8827Z" fill="white"/>
<path d="M834.727 194.38C834.727 198.012 835.38 201.426 836.688 204.623C837.995 207.673 839.739 210.361 841.918 212.685C844.242 215.01 846.93 216.826 849.981 218.133C853.177 219.441 856.591 220.095 860.223 220.095C863.709 220.095 866.978 219.441 870.029 218.133C873.225 216.826 875.913 215.01 878.092 212.685C880.416 210.361 882.232 207.673 883.54 204.623C884.993 201.572 885.719 198.303 885.719 194.816C885.719 191.33 884.993 188.061 883.54 185.01C882.232 181.814 880.416 179.054 878.092 176.729C875.913 174.405 873.225 172.589 870.029 171.281C866.978 169.974 863.709 169.32 860.223 169.32C856.591 169.32 853.177 169.974 849.981 171.281C846.93 172.589 844.242 174.405 841.918 176.729C839.739 179.054 837.995 181.741 836.688 184.792C835.38 187.698 834.727 190.894 834.727 194.38ZM884.411 138.812H924.072V250.603H884.411V238.181C875.985 248.787 864.581 254.089 850.199 254.089C842.063 254.089 834.581 252.637 827.753 249.731C820.925 246.68 814.969 242.467 809.884 237.092C804.8 231.717 800.805 225.397 797.899 218.133C795.139 210.869 793.759 202.952 793.759 194.38C793.759 186.39 795.139 178.836 797.899 171.717C800.659 164.453 804.509 158.134 809.449 152.759C814.388 147.383 820.272 143.17 827.1 140.12C833.928 136.923 841.482 135.325 849.763 135.325C863.709 135.325 875.259 140.192 884.411 149.926V138.812Z" fill="white"/>
<path d="M959.194 194.38C959.194 198.012 959.848 201.426 961.155 204.623C962.463 207.673 964.206 210.361 966.385 212.685C968.71 215.01 971.397 216.826 974.448 218.133C977.644 219.441 981.058 220.095 984.69 220.095C988.177 220.095 991.445 219.441 994.496 218.133C997.692 216.826 1000.38 215.01 1002.56 212.685C1004.88 210.361 1006.7 207.673 1008.01 204.623C1009.46 201.572 1010.19 198.303 1010.19 194.816C1010.19 191.33 1009.46 188.061 1008.01 185.01C1006.7 181.814 1004.88 179.054 1002.56 176.729C1000.38 174.405 997.692 172.589 994.496 171.281C991.445 169.974 988.177 169.32 984.69 169.32C981.203 169.32 977.862 169.974 974.666 171.281C971.615 172.589 968.927 174.405 966.603 176.729C964.424 179.054 962.608 181.741 961.155 184.792C959.848 187.698 959.194 190.894 959.194 194.38ZM1008.88 69.7329H1048.54V250.603H1008.88V238.181C1000.45 248.787 989.048 254.089 974.666 254.089C966.53 254.089 959.049 252.564 952.221 249.513C945.393 246.462 939.436 242.249 934.352 236.874C929.267 231.499 925.272 225.179 922.366 217.915C919.606 210.652 918.226 202.807 918.226 194.38C918.226 186.39 919.533 178.836 922.148 171.717C924.909 164.453 928.758 158.134 933.698 152.759C938.637 147.383 944.521 143.17 951.349 140.12C958.322 136.923 965.949 135.325 974.23 135.325C988.177 135.325 999.726 140.192 1008.88 149.926V69.7329Z" fill="white"/>
<path d="M1047.05 138.812H1086.49V157.117C1090.71 150.434 1095.86 145.35 1101.97 141.863C1108.07 138.231 1115.19 136.415 1123.32 136.415C1124.34 136.415 1125.43 136.415 1126.59 136.415C1127.9 136.415 1129.35 136.56 1130.95 136.851V174.55C1125.72 171.935 1120.05 170.628 1113.95 170.628C1104.8 170.628 1097.9 173.388 1093.25 178.908C1088.75 184.284 1086.49 192.201 1086.49 202.661V250.603H1047.05V138.812Z" fill="white"/>
<path d="M1159.67 138.812V201.79C1159.67 215.591 1166.36 222.492 1179.72 222.492C1193.09 222.492 1199.77 215.591 1199.77 201.79V138.812H1239.21V209.417C1239.21 224.525 1234.2 235.857 1224.18 243.411C1214.3 250.966 1199.48 254.743 1179.72 254.743C1159.96 254.743 1145.07 250.966 1135.05 243.411C1125.17 235.857 1120.23 224.525 1120.23 209.417V138.812H1159.67Z" fill="white"/>
<path d="M1274.29 194.163C1274.29 197.794 1274.94 201.209 1276.25 204.405C1277.55 207.455 1279.3 210.143 1281.48 212.467C1283.8 214.792 1286.49 216.608 1289.54 217.915C1292.74 219.223 1296.15 219.877 1299.78 219.877C1303.27 219.877 1306.54 219.223 1309.59 217.915C1312.78 216.608 1315.47 214.792 1317.65 212.467C1319.98 210.143 1321.79 207.455 1323.1 204.405C1324.55 201.209 1325.28 197.867 1325.28 194.38C1325.28 190.749 1324.55 187.407 1323.1 184.356C1321.79 181.306 1319.98 178.618 1317.65 176.294C1315.33 173.969 1312.57 172.153 1309.37 170.846C1306.32 169.538 1303.12 168.884 1299.78 168.884C1296.3 168.884 1293.03 169.611 1289.98 171.064C1286.93 172.371 1284.24 174.187 1281.91 176.511C1279.59 178.691 1277.7 181.306 1276.25 184.356C1274.94 187.407 1274.29 190.676 1274.29 194.163ZM1362.76 138.812V242.976C1362.76 249.223 1362.4 254.816 1361.67 259.755C1360.94 264.695 1359.93 269.053 1358.62 272.83C1356.88 277.624 1354.12 282.055 1350.34 286.123C1346.71 290.336 1342.28 293.968 1337.05 297.019C1331.82 300.069 1325.86 302.467 1319.18 304.21C1312.64 305.953 1305.52 306.825 1297.82 306.825C1289.1 306.825 1281.11 305.735 1273.85 303.556C1266.59 301.377 1260.19 298.326 1254.67 294.404C1249.3 290.626 1244.87 286.123 1241.38 280.893C1237.89 275.808 1235.57 270.215 1234.41 264.113H1278.86C1281.62 271.523 1287.87 275.227 1297.6 275.227C1305.88 275.227 1312.2 272.903 1316.56 268.254C1321.07 263.605 1323.32 257.14 1323.32 248.859V238.181C1320.41 240.942 1317.58 243.266 1314.82 245.155C1312.2 246.898 1309.52 248.351 1306.76 249.513C1304 250.675 1301.09 251.474 1298.04 251.91C1294.99 252.491 1291.65 252.782 1288.01 252.782C1280.02 252.782 1272.69 251.402 1266.01 248.641C1259.32 245.881 1253.51 242.031 1248.57 237.092C1243.78 232.152 1240 226.269 1237.24 219.441C1234.63 212.467 1233.32 204.768 1233.32 196.342C1233.32 187.77 1234.77 179.853 1237.68 172.589C1240.58 165.18 1244.5 158.788 1249.44 153.412C1254.53 147.892 1260.48 143.606 1267.31 140.555C1274.29 137.359 1281.84 135.761 1289.98 135.761C1303.2 135.761 1314.31 140.701 1323.32 150.579V138.812H1362.76Z" fill="white"/>
<path d="M1435.38 167.577C1428.12 163.8 1421 161.911 1414.03 161.911C1410.4 161.911 1407.42 162.637 1405.09 164.09C1402.91 165.543 1401.82 167.504 1401.82 169.974C1401.82 171.281 1401.97 172.371 1402.26 173.243C1402.7 173.969 1403.5 174.695 1404.66 175.422C1405.96 176.148 1407.78 176.802 1410.11 177.383C1412.57 177.964 1415.77 178.691 1419.69 179.562C1430.59 181.741 1438.72 185.664 1444.1 191.33C1449.48 196.85 1452.16 203.969 1452.16 212.685C1452.16 219.223 1450.86 225.107 1448.24 230.337C1445.63 235.566 1441.99 239.997 1437.34 243.629C1432.7 247.116 1427.1 249.804 1420.57 251.692C1414.03 253.726 1406.84 254.743 1398.99 254.743C1383.88 254.743 1368.99 250.457 1354.32 241.886L1368.7 213.993C1379.74 221.547 1390.2 225.324 1400.08 225.324C1403.71 225.324 1406.69 224.525 1409.02 222.927C1411.34 221.329 1412.5 219.295 1412.5 216.826C1412.5 215.373 1412.28 214.211 1411.85 213.339C1411.56 212.322 1410.83 211.451 1409.67 210.724C1408.51 209.852 1406.76 209.126 1404.44 208.545C1402.26 207.819 1399.35 207.092 1395.72 206.366C1383.52 203.896 1374.95 200.264 1370.01 195.47C1365.21 190.531 1362.82 183.775 1362.82 175.204C1362.82 168.957 1363.98 163.364 1366.3 158.424C1368.63 153.34 1371.97 149.054 1376.33 145.567C1380.69 142.081 1385.92 139.393 1392.02 137.505C1398.27 135.616 1405.17 134.672 1412.72 134.672C1425.07 134.672 1437.05 137.069 1448.68 141.863L1435.38 167.577Z" fill="white"/>
<path fill-rule="evenodd" clip-rule="evenodd" d="M189.408 13.0195C185.228 19.8793 185.228 29.2939 185.228 48.123C185.228 66.9521 185.228 76.3667 189.408 83.2265C191.539 86.7242 194.391 89.6872 197.756 91.9021C204.357 96.246 213.417 96.246 231.535 96.246C249.654 96.246 258.713 96.246 265.314 91.9021C268.68 89.6872 271.531 86.7242 273.662 83.2265C277.842 76.3667 277.842 66.9521 277.842 48.123C277.842 29.2939 277.842 19.8793 273.662 13.0195C271.531 9.52182 268.68 6.55882 265.314 4.34392C258.713 0 249.654 0 231.535 0C213.417 0 204.357 0 197.756 4.34392C194.391 6.55882 191.539 9.52182 189.408 13.0195ZM12.8877 111.582C0 125.749 0 147.997 0 192.492C0 236.987 0 259.235 12.8877 273.401C13.4934 274.067 14.117 274.715 14.7578 275.345C28.3895 288.738 49.7977 288.738 92.6141 288.738C135.43 288.738 156.839 288.738 170.47 275.345C171.111 274.715 171.735 274.067 172.34 273.401C185.228 259.235 185.228 236.987 185.228 192.492C185.228 147.997 185.228 125.749 172.34 111.582C171.735 110.917 171.111 110.269 170.47 109.639C156.839 96.246 135.43 96.246 92.6141 96.246C49.7977 96.246 28.3895 96.246 14.7578 109.639C14.117 110.269 13.4934 110.917 12.8877 111.582Z" fill="white"/>
</svg>
