<svg xmlns="http://www.w3.org/2000/svg" version="1.1" xmlns:xlink="http://www.w3.org/1999/xlink" xmlns:svgjs="http://svgjs.com/svgjs" width="330" height="330"><svg width="330" height="330" viewBox="0 0 330 330" fill="none" xmlns="http://www.w3.org/2000/svg">
<path fill-rule="evenodd" clip-rule="evenodd" d="M224.965 14.8801C220 22.7202 220 33.4801 220 55C220 76.5199 220 87.2798 224.965 95.1199C227.496 99.1175 230.883 102.504 234.88 105.035C242.72 110 253.48 110 275 110C296.52 110 307.28 110 315.12 105.035C319.117 102.504 322.504 99.1175 325.035 95.1199C330 87.2798 330 76.5199 330 55C330 33.4801 330 22.7202 325.035 14.8801C322.504 10.8825 319.117 7.4961 315.12 4.96469C307.28 0 296.52 0 275 0C253.48 0 242.72 0 234.88 4.96469C230.883 7.4961 227.496 10.8825 224.965 14.8801ZM15.307 127.528C0 143.719 0 169.146 0 220C0 270.854 0 296.281 15.307 312.472C16.0265 313.233 16.7672 313.974 17.5282 314.693C33.7189 330 59.146 330 110 330C160.854 330 186.281 330 202.472 314.693C203.233 313.974 203.974 313.233 204.693 312.472C220 296.281 220 270.854 220 220C220 169.146 220 143.719 204.693 127.528C203.974 126.767 203.233 126.026 202.472 125.307C186.281 110 160.854 110 110 110C59.146 110 33.7189 110 17.5282 125.307C16.7672 126.026 16.0265 126.767 15.307 127.528Z" fill="black"></path>
</svg><style>@media (prefers-color-scheme: light) { :root { filter: none; } }
@media (prefers-color-scheme: dark) { :root { filter: contrast(0.8333333333333334) brightness(1.7); } }
</style></svg>