<?xml version="1.0" standalone="no"?>
<!DOCTYPE svg PUBLIC "-//W3C//DTD SVG 20010904//EN"
 "http://www.w3.org/TR/2001/REC-SVG-20010904/DTD/svg10.dtd">
<svg version="1.0" xmlns="http://www.w3.org/2000/svg"
 width="700.000000pt" height="700.000000pt" viewBox="0 0 700.000000 700.000000"
 preserveAspectRatio="xMidYMid meet">
<g transform="translate(0.000000,700.000000) scale(0.100000,-0.100000)"
fill="#000000" stroke="none">
<path d="M5399 6996 c-2 -2 -40 -6 -84 -9 -238 -17 -398 -101 -521 -273 -46
-65 -87 -166 -99 -244 -4 -24 -8 -47 -10 -50 -23 -37 -24 -1033 0 -1158 1 -9
6 -37 10 -62 17 -111 52 -191 124 -280 88 -109 216 -193 330 -215 12 -2 30 -6
39 -9 17 -5 65 -11 179 -22 77 -8 814 -7 925 0 201 14 334 51 423 118 65 49
162 157 193 215 33 62 64 167 77 259 10 71 14 974 4 1069 -17 174 -43 268 -99
353 -59 91 -160 187 -238 226 -40 21 -143 52 -197 60 -22 4 -56 9 -75 13 -36
6 -975 15 -981 9z"/>
<path d="M1637 4664 c-1 -1 -76 -5 -167 -9 -91 -3 -181 -8 -200 -10 -117 -10
-181 -17 -230 -25 -30 -5 -73 -12 -94 -15 -59 -8 -190 -43 -249 -66 -275 -105
-462 -292 -566 -564 -30 -78 -74 -256 -85 -345 -37 -301 -41 -427 -41 -1315 0
-787 5 -994 30 -1185 10 -82 26 -186 30 -200 2 -8 6 -27 9 -42 37 -216 168
-454 322 -583 85 -72 109 -87 214 -138 156 -76 345 -119 620 -143 329 -28
1954 -27 2215 1 163 18 239 28 295 40 14 3 36 7 50 10 54 10 159 44 232 74
254 106 448 323 533 595 27 90 50 189 61 271 3 28 7 52 9 55 2 3 6 46 10 95 4
50 8 101 10 114 26 161 26 1825 0 2120 -9 104 -16 168 -20 191 -2 13 -7 46
-10 74 -22 188 -108 417 -210 555 -42 58 -156 168 -215 208 -146 99 -378 176
-600 198 -36 3 -76 8 -90 10 -32 5 -135 13 -275 21 -95 6 -1582 13 -1588 8z"/>
</g>
</svg>
